# xmcd
#
# Track frame offsets: 
#        150
#        21487
#        75776
#        88601
#        101743
#        116889
#        140332
#        165499
#        181782
#        194901
#
# Disc length: 2699 seconds
#
# Revision: 0
# Processed by: cddbd v1.5.2PL0 Copyright (c) Steve Scherf et al.
# Submitted via: ExactAudioCopy v0.99pb5
#
DISCID=7f0a890a
DTITLE=Jimmy Webb and The Webb Brothers - Cottonwood Farm
DYEAR=2009
DGENRE=Country
TTITLE0=Highwayman
TTITLE1=Cottonwood Farm
TTITLE2=Hollow Victory
TTITLE3=Bad Things Happen To Good People
TTITLE4=Mercury's In Retrograde
TTITLE5=If These Walls Could Speak
TTITLE6=Where The Universes Are
TTITLE7=Old Tin Can
TTITLE8=Snow Covered Christmas
TTITLE9=Red Sails In The Sunset
EXTD=
EXTT0=
EXTT1=
EXTT2=
EXTT3=
EXTT4=
EXTT5=
EXTT6=
EXTT7=
EXTT8=
EXTT9=
PLAYORDER=
